<svg xmlns="http://www.w3.org/2000/svg" width="141" height="140" viewBox="0 0 141 140"><defs><clipPath id="a"><path fill="#fff" d="M869 1660v-140h141v140zm6-70a65 65 0 1 0 130 0 65 65 0 0 0-130 0z"/></clipPath></defs><path fill="none" d="M71 5a65 65 0 1 1 0 130A65 65 0 1 1 71 5z"/><path fill="none" stroke="#fff" stroke-linecap="round" stroke-linejoin="round" stroke-miterlimit="50" stroke-width="10" d="M940 1525a65 65 0 1 1 0 130 65 65 0 1 1 0-130z" clip-path="url(&quot;#a&quot;)" transform="translate(-869 -1520)"/><path fill="#fff" d="M71 10a60 60 0 1 1 0 120 60 60 0 0 1 0-120z"/><path fill="#c8535a" d="M68.75 70.06c0 5.51-4.5 10-10 10-5.51 0-10-4.49-10-10s4.49-10 10-10c5.5 0 10 4.49 10 10zm30 20a5 5 0 0 1-10 0c0-2.73 2.26-5 5-5 2.73 0 5 2.27 5 5zm-5-45c-2.74 0-5 2.27-5 5a5.01 5.01 0 0 0 10 0c0-2.73-2.27-5-5-5zm-10 21.45c0-.55-.4-1.06-.94-1.17l-5.94-.9c-.35-1.1-.82-2.15-1.33-3.21 1.1-1.52 2.27-2.93 3.4-4.45.16-.23.28-.47.28-.74 0-1.1-4.61-5.31-5.63-6.25-.23-.2-.5-.31-.82-.31-.27 0-.55.07-.78.27l-4.61 3.48c-.94-.47-1.91-.9-2.93-1.22l-.9-5.97c-.08-.55-.62-.98-1.17-.98h-7.27c-.54 0-1.01.39-1.17.94-.5 1.91-.7 4.06-.9 6.01-1.05.36-2.03.75-3 1.25l-4.5-3.51c-.23-.16-.5-.27-.82-.27-1.13 0-5.5 4.72-6.29 5.78-.2.23-.27.5-.27.78 0 .27.12.54.27.78a62.99 62.99 0 0 1 3.52 4.49c-.5.98-.94 1.95-1.25 2.97l-6.06.94c-.5.08-.9.66-.9 1.17v7.23c0 .54.4 1.05.94 1.13l5.94.94c.35 1.09.82 2.15 1.37 3.2-1.13 1.52-2.3 2.97-3.44 4.45-.16.24-.27.47-.27.75 0 1.13 4.6 5.31 5.62 6.24.24.2.51.32.82.32.28 0 .59-.08.78-.28l4.61-3.47c.94.47 1.92.9 2.93 1.21l.9 5.97c.08.55.63.98 1.17.98h7.27c.55 0 1.01-.39 1.17-.94.51-1.91.7-4.06.9-6.05 1.05-.31 2.03-.7 3-1.21l4.5 3.51c.23.16.5.28.82.28 1.13 0 5.5-4.77 6.29-5.82.2-.2.27-.47.27-.74 0-.32-.11-.55-.27-.79a62.72 62.72 0 0 1-3.52-4.49c.51-.97.94-1.95 1.25-2.97l6.06-.93c.5-.08.9-.67.9-1.18zm25 20.82c0-.59-5.04-1.14-5.82-1.21a10.2 10.2 0 0 0-1.18-2.03c.36-.79 2-4.69 2-5.4a.35.35 0 0 0-.16-.27c-.47-.27-4.65-2.73-4.84-2.73l-.24.07a35.56 35.56 0 0 0-3.6 4.38c-.38-.04-.77-.08-1.16-.08-.4 0-.78.04-1.18.08-.39-.59-3.32-4.45-3.82-4.45-.2 0-4.38 2.5-4.85 2.73a.35.35 0 0 0-.15.27c0 .67 1.64 4.61 1.99 5.4a10.2 10.2 0 0 0-1.17 2.03c-.78.07-5.82.62-5.82 1.21v5.47c0 .58 5.04 1.13 5.82 1.21.31.74.7 1.4 1.17 2.03-.35.78-2 4.72-2 5.39 0 .08.05.19.16.27.47.28 4.65 2.78 4.85 2.78.5 0 3.43-3.91 3.82-4.5.4.04.79.08 1.18.08.39 0 .78-.04 1.17-.08.39.59 3.32 4.5 3.83 4.5.2 0 4.37-2.5 4.84-2.78.12-.08.16-.15.16-.27 0-.7-1.64-4.61-2-5.39.47-.63.86-1.29 1.18-2.03.78-.08 5.82-.63 5.82-1.21zm0-34.53c0 .58-5.04 1.13-5.82 1.21-.32.74-.7 1.4-1.18 2.03.36.78 2 4.69 2 5.39 0 .12-.04.19-.16.27-.47.28-4.65 2.78-4.84 2.78-.51 0-3.44-3.91-3.83-4.5-.4.04-.78.08-1.17.08-.4 0-.78-.04-1.18-.08-.39.59-3.32 4.5-3.82 4.5-.2 0-4.38-2.5-4.85-2.78a.33.33 0 0 1-.15-.27c0-.67 1.64-4.61 1.99-5.39a9.67 9.67 0 0 1-1.17-2.03c-.78-.08-5.82-.63-5.82-1.21v-5.47c0-.59 5.04-1.14 5.82-1.21.31-.71.7-1.41 1.17-2.03-.35-.79-2-4.73-2-5.4 0-.07.05-.19.16-.27.47-.23 4.65-2.73 4.85-2.73.5 0 3.43 3.86 3.82 4.45.4-.04.79-.08 1.18-.08.39 0 .78.04 1.17.08a35.56 35.56 0 0 1 3.6-4.38l.23-.07c.2 0 4.37 2.46 4.84 2.73.12.08.16.2.16.27 0 .71-1.64 4.61-2 5.4.47.62.86 1.32 1.18 2.03.78.07 5.82.62 5.82 1.21z"/></svg>