<svg xmlns="http://www.w3.org/2000/svg" width="140" height="140" viewBox="0 0 140 140"><defs><clipPath id="a"><path fill="#fff" d="M1150 1660v-140h140v140zm5-70a65 65 0 1 0 130 0 65 65 0 0 0-130 0z"/></clipPath></defs><path fill="none" d="M70 5a65 65 0 1 1 0 130A65 65 0 0 1 70 5z"/><path fill="none" stroke="#fff" stroke-linecap="round" stroke-linejoin="round" stroke-miterlimit="50" stroke-width="10" d="M1220 1525a65 65 0 1 1 0 130 65 65 0 0 1 0-130z" clip-path="url(&quot;#a&quot;)" transform="translate(-1150 -1520)"/><path fill="#fff" d="M70 10a60 60 0 1 1 0 120 60 60 0 0 1 0-120z"/><path fill="#c8535a" d="M92.75 50.5a3.75 3.75 0 1 1-7.5 0 3.75 3.75 0 0 1 7.5 0zm8.75-11.25c0-.7-.63-1.25-1.33-1.25-13.59 0-21.05 3.12-30.82 12.85a138.53 138.53 0 0 0-6.87 7.62l-14.81.78c-.39.04-.78.27-1.01.62l-8.75 15c-.28.47-.2 1.1.19 1.53l2.5 2.5c.24.23.59.35.9.35.12 0 .23 0 .35-.04l10.78-3.32 10.98 10.98-3.32 10.78c-.12.43 0 .9.31 1.25l2.5 2.5c.27.23.59.35.9.35.23 0 .43-.04.62-.16l15-8.75c.36-.23.59-.62.63-1.01l.78-14.81a142.7 142.7 0 0 0 7.62-6.87c9.26-9.3 12.85-17.93 12.85-30.9z"/></svg>