<svg xmlns="http://www.w3.org/2000/svg" width="142" height="140" viewBox="0 0 142 140"><defs><clipPath id="a"><path fill="#fff" d="M589 1660v-140h142v140zm6-70a65 65 0 1 0 130 0 65 65 0 0 0-130 0z"/></clipPath></defs><path fill="none" d="M71 5a65 65 0 1 1 0 130A65 65 0 0 1 71 5z"/><path fill="none" stroke="#fff" stroke-linecap="round" stroke-linejoin="round" stroke-miterlimit="50" stroke-width="10" d="M660 1525a65 65 0 1 1 0 130 65 65 0 0 1 0-130z" clip-path="url(&quot;#a&quot;)" transform="translate(-589 -1520)"/><path fill="#fff" d="M71 10a60 60 0 1 1 0 120 60 60 0 0 1 0-120z"/><path fill="#c8535a" d="M84.38 60.54l-4.17-4.18 11.44-11.45 4.18 4.18zm17.47-11.45c0-.66-.24-1.29-.7-1.76L93.4 39.6c-.47-.47-1.1-.7-1.76-.7-.66 0-1.29.23-1.76.7L39.66 89.83c-.47.47-.7 1.1-.7 1.76 0 .67.23 1.29.7 1.76l7.73 7.73c.47.47 1.1.71 1.76.71.66 0 1.29-.24 1.76-.71l50.23-50.23c.47-.47.7-1.09.7-1.76zm-52.78-7.42l-1.17-3.83-1.17 3.83-3.83 1.17 3.83 1.17 1.17 3.83 1.17-3.83 3.83-1.17zM62.74 48l-2.34-7.66L58.06 48l-7.66 2.34 7.66 2.35 2.34 7.65 2.34-7.65 7.66-2.35zm36.33 18.67l-1.17-3.83-1.17 3.83-3.83 1.17 3.83 1.17 1.17 3.83 1.17-3.83 3.83-1.17zM77.9 42.84l-3.83 1.17-1.17 3.83-1.17-3.83-3.83-1.17 3.83-1.17 1.17-3.83 1.17 3.83z"/></svg>