<svg xmlns="http://www.w3.org/2000/svg" width="142" height="140" viewBox="0 0 142 140"><defs><clipPath id="a"><path fill="#fff" d="M309 1660v-140h142v140zm6-70a65 65 0 1 0 130 0 65 65 0 0 0-130 0z"/></clipPath></defs><path fill="none" d="M71 5a65 65 0 1 1 0 130A65 65 0 0 1 71 5z"/><path fill="none" stroke="#fff" stroke-linecap="round" stroke-linejoin="round" stroke-miterlimit="50" stroke-width="10" d="M380 1525a65 65 0 1 1 0 130 65 65 0 0 1 0-130z" clip-path="url(&quot;#a&quot;)" transform="translate(-309 -1520)"/><path fill="#fff" d="M71 10a60 60 0 1 1 0 120 60 60 0 0 1 0-120z"/><path fill="#df5c64" d="M80.86 56.14c0-4.96-5.85-7.15-10-7.15-.76 0-1.43.67-1.43 1.43 0 .76.67 1.43 1.43 1.43 2.37 0 7.14 1.21 7.14 4.29 0 .76.67 1.43 1.43 1.43.76 0 1.43-.67 1.43-1.43zm7.14 0a12.7 12.7 0 0 1-3.03 8.03c-.85.99-1.83 1.92-2.73 2.95-3.17 3.8-5.84 8.26-6.3 13.31H65.78c-.45-5.05-3.13-9.51-6.3-13.31-.89-1.03-1.87-1.96-2.72-2.95a12.7 12.7 0 0 1-3.03-8.03c0-8.93 9.06-14.29 17.14-14.29S88 47.21 88 56.14zm5.72 0c0-12.15-11.57-20-22.86-20-11.3 0-22.86 7.85-22.86 20 0 4.6 1.52 8.57 4.6 11.96 3.08 3.4 7.14 8.17 7.5 12.95a4.3 4.3 0 0 0-2.1 3.66c0 1.07.4 2.1 1.12 2.86A4.18 4.18 0 0 0 58 90.43c0 1.47.76 2.81 2.01 3.61a4.4 4.4 0 0 0-.58 2.1c0 2.9 2.28 4.29 4.87 4.29a7.24 7.24 0 0 0 6.56 4.28c2.81 0 5.4-1.69 6.56-4.28 2.6 0 4.87-1.39 4.87-4.29a4.4 4.4 0 0 0-.58-2.1c1.25-.8 2-2.14 2-3.61 0-1.07-.4-2.1-1.1-2.86a4.18 4.18 0 0 0 1.1-2.86c0-1.47-.8-2.9-2.1-3.66.37-4.78 4.43-9.55 7.51-12.95a17.16 17.16 0 0 0 4.6-11.96z"/></svg>